REM GENRE "Folk Metal"
REM DATE 2009
REM DISCID B811C10C
REM COMMENT "ExactAudioCopy v0.95b4"
PERFORMER "Калевала"
TITLE "Кукушкины Дети"
FILE "Калевала - Кукушкины Дети.wav" WAVE
  TRACK 01 AUDIO
    TITLE "Калевала"
    PERFORMER "Калевала"
    INDEX 01 00:00:00
  TRACK 02 AUDIO
    TITLE "Кукушкины Дети"
    PERFORMER "Калевала"
    INDEX 01 04:27:13
  TRACK 03 AUDIO
    TITLE "Горсти Талого Снега"
    PERFORMER "Калевала"
    INDEX 01 07:54:54
  TRACK 04 AUDIO
    TITLE "Плакали Вербы"
    PERFORMER "Калевала"
    INDEX 01 12:02:06
  TRACK 05 AUDIO
    TITLE "Купальская Ночь"
    PERFORMER "Калевала"
    INDEX 01 18:06:42
  TRACK 06 AUDIO
    TITLE "У Разбитого Корыта Одинокого Крыльца"
    PERFORMER "Калевала"
    INDEX 01 22:54:47
  TRACK 07 AUDIO
    TITLE "Медуницы Пряной Белый Костер"
    PERFORMER "Калевала"
    INDEX 01 27:14:08
  TRACK 08 AUDIO
    TITLE "Ветер В Спину"
    PERFORMER "Калевала"
    INDEX 01 31:36:28
  TRACK 09 AUDIO
    TITLE "Первый Последний Закат"
    PERFORMER "Калевала"
    INDEX 01 36:59:58
  TRACK 10 AUDIO
    TITLE "Про Жеребца (Яйца)"
    PERFORMER "Калевала"
    INDEX 01 41:36:49
  TRACK 11 AUDIO
    TITLE "Колокольчик (Bonus Track)"
    PERFORMER "Калевала"
    INDEX 01 46:52:64
